<?xml version="1.0" encoding="utf-8"?>
<!-- Generator: Adobe Illustrator 17.1.0, SVG Export Plug-In . SVG Version: 6.00 Build 0)  -->
<!DOCTYPE svg PUBLIC "-//W3C//DTD SVG 1.1//EN" "http://www.w3.org/Graphics/SVG/1.1/DTD/svg11.dtd">
<svg version="1.1" id="Layer_1" xmlns="http://www.w3.org/2000/svg" xmlns:xlink="http://www.w3.org/1999/xlink" x="0px" y="0px"
	 viewBox="0 0 216 33.3" enable-background="new 0 0 216 33.3" xml:space="preserve">
<g>
	<g>
		<path fill="#FFFFFF" d="M16.8,24.7c-2.3,0-4.2-0.8-4.7-3.1l2.4-0.6c0.3,0.8,1,1.2,2.2,1.2c0.6,0,1.8-0.2,1.8-1.1
			c0-2-6.3-0.9-6.3-4.9c0-2.4,2-3.4,4.1-3.4c2.1,0,3.2,0.5,4.3,2.2l-2.1,1.2c-0.5-0.6-1.2-1-2-1c-0.6,0-1.6,0.2-1.6,1
			c0,1.7,6.2,0.6,6.2,4.8C21.3,23.5,19,24.7,16.8,24.7z"/>
		<path fill="#FFFFFF" d="M32.1,19.5h-6.9c0.1,1.5,0.9,2.7,2.5,2.7c1,0,1.9-0.5,2.4-1.1l1.7,1.7c-1.2,1.2-2.5,2-4.2,2
			c-3.5,0-5.4-2.6-5.4-5.9c0-3.3,1.7-5.9,5.2-5.9c2.8,0,4.5,2.3,4.5,5.6V19.5z M29.6,17.7c-0.1-1.2-0.7-2.2-2-2.2
			c-1.4,0-2.1,0.9-2.2,2.2H29.6z"/>
		<path fill="#FFFFFF" d="M42.8,24.1l-2.4,0.6l-0.3-0.9c-0.8,0.6-1.8,0.9-2.7,0.9c-2.2,0-4.2-1.3-4.2-3.7c0-2.1,1.3-3.4,4.1-3.6
			c0.6,0,1.7,0,1.7,0c0.4,0,0.6-0.1,0.7-0.3v-0.5c0-0.8-0.8-1.3-1.6-1.3c-0.9,0-1.8,0.3-2.1,1.2l-2.4-0.8c0.7-2,2.4-2.8,4.5-2.8
			c2,0,4.1,1.4,4.1,3.5v5.9L42.8,24.1z M39.8,19.3c-0.3,0.2-0.5,0.2-0.8,0.2h-1.4c-0.9,0-1.8,0.5-1.8,1.6c0,0.9,1,1.4,1.8,1.4
			c0.9,0,1.6-0.3,2.3-0.9V19.3z"/>
		<path fill="#FFFFFF" d="M50.4,15.8c-0.4-0.2-0.9-0.3-1.4-0.3c-1.2,0-1.9,0.7-1.9,1.8v7.2h-2.7V13.1h2.2l0.1,0.7
			c0.1-0.3,1.1-1,2.3-1c0.9,0,1.6,0.3,2.4,0.8L50.4,15.8z"/>
		<path fill="#FFFFFF" d="M58.8,17c-0.6-0.7-1.4-1.4-2.4-1.4c-2,0-2.5,1.6-2.5,3.3c0,1.7,0.5,3.3,2.5,3.3c1,0,1.8-0.7,2.4-1.4l2,1.8
			c-1.3,1.4-2.4,2.2-4.4,2.2c-3.4,0-5.3-2.6-5.3-5.9c0-3.3,1.9-5.9,5.3-5.9c2,0,3.1,0.8,4.4,2.2L58.8,17z"/>
		<path fill="#FFFFFF" d="M71.9,24.5h-2.8v-6.3c0-1.4-0.4-2.5-2-2.5c-0.9,0-1.9,0.7-1.9,1.7v7.1h-2.7V8.4h2.7v5.4
			c0.6-0.6,1.5-0.8,2.2-0.8c3.1,0,4.4,2.2,4.4,5.2V24.5z"/>
		<path fill="#FFFFFF" d="M78.9,9.5c-2.1,0.1-2.7,1.2-2.7,3.2v0.6h2.4v1.2h-2.4v9.9h-1.3v-9.9h-1.2v-1.2h1.2v-0.9
			c0-2.1,0.8-3.9,4-4.1V9.5z"/>
		<path fill="#FFFFFF" d="M84.4,24.7c-3.6,0-4.8-2.5-4.8-5.7c0-3.3,1.2-5.8,4.8-5.8c3.6,0,4.8,2.5,4.8,5.8
			C89.2,22.2,88,24.7,84.4,24.7z M84.4,14.5c-2.9,0-3.4,2.2-3.4,4.5c0,2.2,0.5,4.4,3.4,4.4c2.9,0,3.4-2.2,3.4-4.4
			C87.8,16.7,87.3,14.5,84.4,14.5z"/>
		<path fill="#FFFFFF" d="M97.7,14.8c-0.5-0.2-1-0.3-1.5-0.3c-1.6,0-3.1,1.2-3.1,2.7v7.3h-1.4V13.3H93l0,1.6
			c0.7-1.3,2.1-1.8,3.2-1.8c0.7,0,1.4,0.2,2.1,0.5L97.7,14.8z"/>
		<path fill="#FFFFFF" d="M108.6,19.5h-6.9c0.1,1.5,0.9,2.7,2.5,2.7c1,0,1.9-0.5,2.4-1.1l1.7,1.7c-1.2,1.2-2.5,2-4.2,2
			c-3.5,0-5.4-2.6-5.4-5.9c0-3.3,1.7-5.9,5.2-5.9c2.8,0,4.5,2.3,4.5,5.6V19.5z M106.1,17.7c-0.1-1.2-0.7-2.2-2-2.2
			c-1.4,0-2.1,0.9-2.2,2.2H106.1z"/>
		<path fill="#FFFFFF" d="M119.5,24.5h-2.8v-6.3c0-1.4-0.3-2.5-2-2.5c-1.1,0-1.9,0.9-1.9,1.9v7h-2.7V13.1h2.3l0.1,0.7
			c0.6-0.6,1.6-0.9,2.4-0.9c3.3,0,4.7,2.1,4.7,5.2V24.5z"/>
		<path fill="#FFFFFF" d="M130.4,19.5h-6.9c0.1,1.5,0.9,2.7,2.5,2.7c1,0,1.9-0.5,2.4-1.1l1.7,1.7c-1.2,1.2-2.5,2-4.2,2
			c-3.5,0-5.4-2.6-5.4-5.9c0-3.3,1.7-5.9,5.2-5.9c2.8,0,4.5,2.3,4.5,5.6V19.5z M127.8,17.7c-0.1-1.2-0.7-2.2-2-2.2
			c-1.4,0-2.1,0.9-2.2,2.2H127.8z"/>
		<path fill="#FFFFFF" d="M137.9,15.8c-0.4-0.2-0.9-0.3-1.4-0.3c-1.2,0-1.9,0.7-1.9,1.8v7.2h-2.7V13.1h2.2l0.1,0.7
			c0.1-0.3,1.1-1,2.3-1c0.9,0,1.6,0.3,2.4,0.8L137.9,15.8z"/>
		<path fill="#FFFFFF" d="M142.9,21.2c-0.4,0-0.8-0.1-1.2-0.2c-0.3,0.2-0.6,0.6-0.6,1c0,0.3,0.3,0.4,0.6,0.4c1.2,0,2.4-0.6,3.6-0.6
			c1.7,0,3,1.1,3,2.8c0,2.8-2.7,4.4-5.3,4.4c-2.2,0-4.8-0.9-4.8-3.5c0-0.3,0-0.7,0.2-1.1l2.4,0.7c0,0.1,0,0.2,0,0.3c0,0.7,1,1,1.9,1
			c1.3,0,3-0.6,3-1.8c0-0.5-0.4-0.7-0.9-0.7c-1,0-1.9,0.4-2.9,0.4c-1.4,0-3-0.6-3-2.2c0-0.8,0.3-1.5,0.9-2.1c-0.8-0.8-1.1-1.9-1.1-3
			c0-2.7,1.7-4.2,4.3-4.2c0.9,0,1.8,0.1,2.6,0.6c0.2-0.3,0.3-0.6,0.3-0.9h2.3c0,1-0.2,2.1-1.1,2.7c0.2,0.6,0.3,1.2,0.3,1.8
			C147.3,19.8,145.5,21.2,142.9,21.2z M143,15.5c-1,0-1.7,0.5-1.7,1.6c0,1.1,0.6,1.6,1.7,1.6s1.7-0.5,1.7-1.6
			C144.7,16,144,15.5,143,15.5z"/>
		<path fill="#FFFFFF" d="M160,13.1l-5.2,13.9c-0.8,2.2-2.3,2.5-4.3,2.5H150v-2.4h0.4c1.3,0,1.6-0.2,1.9-1l0.6-1.7l-4.1-11.4h3
			l2.5,7.9l2.6-7.9H160z"/>
		<path fill="#FFFFFF" d="M163.6,24.7c-1,0-1.8-0.8-1.8-1.8c0-1,0.8-1.8,1.8-1.8s1.8,0.8,1.8,1.8C165.4,23.9,164.6,24.7,163.6,24.7z
			"/>
		<path fill="#FFFFFF" d="M175.6,17c-0.6-0.7-1.4-1.4-2.4-1.4c-2,0-2.5,1.6-2.5,3.3c0,1.7,0.5,3.3,2.5,3.3c1,0,1.8-0.7,2.4-1.4
			l2,1.8c-1.3,1.4-2.4,2.2-4.4,2.2c-3.4,0-5.3-2.6-5.3-5.9c0-3.3,1.9-5.9,5.3-5.9c2,0,3.1,0.8,4.4,2.2L175.6,17z"/>
		<path fill="#FFFFFF" d="M183.8,24.7c-3.6,0-5.1-2.5-5.1-5.9c0-3.4,1.4-5.9,5.1-5.9c3.6,0,5.1,2.5,5.1,5.9
			C188.8,22.2,187.4,24.7,183.8,24.7z M183.8,15.6c-2,0-2.3,1.6-2.3,3.2c0,1.6,0.3,3.2,2.3,3.2c2,0,2.3-1.6,2.3-3.2
			C186,17.2,185.7,15.6,183.8,15.6z"/>
		<path fill="#FFFFFF" d="M206.6,24.5h-2.8v-6.4c0-1.3-0.2-2.5-1.8-2.5c-1.7,0-1.7,1.7-1.7,2.9v6h-2.8v-6.4c0-1.3-0.3-2.5-1.8-2.5
			c-1,0-1.7,0.8-1.7,1.7v7.2h-2.8V13.1h2.3l0.1,0.7c0.6-0.6,1.3-0.9,2.1-0.9c1.5,0,2.3,0.3,3.3,1.4c0.9-1,1.7-1.4,3-1.4
			c3.2,0,4.6,2.2,4.6,5.2V24.5z"/>
	</g>
</g>
</svg>
